<svg class="svg-icon" style="width: 1em; height: 1em;vertical-align: middle;fill: currentColor;overflow: hidden;" viewBox="0 0 1024 1024" version="1.1" xmlns="http://www.w3.org/2000/svg"><path d="M767.12569 694.367471c91.020394 0 164.812973 73.79258 164.812973 164.812973a164.049341 164.049341 0 0 1-20.015731 78.77594h17.379224c23.758189 0 43.020162 19.261973 43.020162 43.020162v23.603488a19.419966 19.419966 0 0 1-19.419966 19.419966h-185.776662c-91.026977 0-164.819556-73.79258-164.819556-164.819556 0-91.020394 73.79258-164.812973 164.819556-164.812973zM256.87431 694.367471c-91.023685 0-164.816265 73.79258-164.816265 164.812973a164.052632 164.052632 0 0 0 20.019023 78.77594h-17.379224c-23.758189 0-43.020162 19.261973-43.020162 43.020162v23.603488a19.419966 19.419966 0 0 0 19.419966 19.419966h185.776662c91.026977 0 164.819556-73.79258 164.819556-164.819556 0.003292-91.020394-73.789288-164.812973-164.819556-164.812973z" fill="#65513C" /><path d="M342.03909 1024h339.925112c75.533794 0 137.345242-61.808156 137.345241-137.348533v-284.73291c0-169.723921-137.588814-307.309443-307.312735-307.309443s-307.309443 137.585522-307.309443 307.309443v284.73291c0.003292 75.540377 61.811448 137.348533 137.351825 137.348533z" fill="#9C7F4D" /><path d="M204.690557 684.492912v183.591092c41.035376-10.378162 71.402936-47.536127 71.402936-91.797192 0-44.257774-30.367561-81.415739-71.402936-91.7939z" fill="#FFFFFF" /><path d="M694.346899 27.660286h-364.700381c-81.047089 0-147.361336 66.310955-147.361335 147.361335v154.280111c0 182.093452 147.618074 329.708234 329.711525 329.708234 182.09016 0 329.708234-147.614783 329.708235-329.708234V175.01833c0.003292-81.047089-66.307664-147.358044-147.358044-147.358044z" fill="#9C7F4D" /><path d="M637.79859 314.437229h-251.59718c-38.754353 0-70.168616 31.414264-70.168617 70.168616v140.343816c0 38.754353 31.414264 70.171908 70.168617 70.171908s70.168616-31.417555 70.168616-70.171908v-70.168616h111.256657v70.168616c0 38.754353 31.414264 70.171908 70.168616 70.171908 38.754353 0 70.168616-31.417555 70.168616-70.171908v-140.343816c0.003292-38.754353-31.410972-70.168616-70.165325-70.168616z" fill="#FFFFFF" /><path d="M433.832991 433.817356c-10.809351 0-15.236445-7.659366-9.828478-17.02374l19.031567-32.967861c5.407967-9.364373 14.25228-9.364373 19.660247 0l19.031567 32.967861c5.404675 9.364373 0.980873 17.02374-9.828478 17.02374H433.832991zM590.167009 433.817356c10.809351 0 15.236445-7.659366 9.825186-17.02374l-19.028275-32.967861c-5.404675-9.364373-14.25228-9.364373-19.660247 0l-19.031567 32.967861c-5.407967 9.364373-0.980873 17.02374 9.828478 17.02374h38.066425z" fill="#FADF8D" /><path d="M568.347525 401.804036h-112.701633c-25.03859 0-45.534883 20.48971-45.534884 45.534883v24.847682c0 56.275112 45.61388 101.882409 101.888992 101.882408 56.27182 0 101.8857-45.607297 101.8857-101.882408V447.338919c0-25.048465-20.493002-45.534883-45.538175-45.534883z" fill="#826940" /><path d="M544.885573 350.064638c-16.661673 17.28377-44.42235 17.770915-61.683079 1.102659l-19.265264-18.590503c-17.270604-16.674839-11.754017-30.314896 12.251036-30.314896h71.162655c24.005053 0 30.008785 14.140369 13.343821 31.410972l-15.809169 16.391768z" fill="#333E48" /><path d="M830.615813 169.613655c-44.172194 0.809714-80.94176-34.692617-81.711976-78.854937l-0.878836-49.267467c-0.776799-44.175486 24.163046-54.75443 55.40286-23.511325l92.623363 92.620072c31.243105 31.243105 20.650994 57.460059-23.521199 58.246733l-41.914212 0.766924zM193.384187 169.613655c44.172194 0.809714 80.94176-34.692617 81.711976-78.854937l0.878836-49.267467c0.78009-44.175486-24.159754-54.75443-55.399568-23.511325L127.952067 110.599998c-31.243105 31.243105-20.650994 57.460059 23.517908 58.246733l41.914212 0.766924z" fill="#65513C" /><path d="M683.616544 198.654733m-79.526407 0a79.526407 79.526407 0 1 0 159.052814 0 79.526407 79.526407 0 1 0-159.052814 0Z" fill="#FFFFFF" /><path d="M683.616544 198.654733m-29.027912 0a29.027912 29.027912 0 1 0 58.055824 0 29.027912 29.027912 0 1 0-58.055824 0Z" fill="#333E48" /><path d="M340.383456 198.654733m-29.027912 0a29.027912 29.027912 0 1 0 58.055824 0 29.027912 29.027912 0 1 0-58.055824 0Z" fill="#333E48" /><path d="M428.32957 711.397793c0-39.807639-32.27335-72.077698-72.077698-72.077698-39.807639 0-72.077698 32.27335-72.077698 72.077698v226.5553H224.423217c-23.761481 0-43.016871 19.261973-43.01687 43.020162v23.603487c0 10.727063 8.689612 19.419966 19.416674 19.419966h184.489678c23.758189 0 43.016871-19.265265 43.016871-43.023453v-269.575462zM595.67043 711.397793c0-39.807639 32.27335-72.077698 72.077698-72.077698 39.807639 0 72.077698 32.27335 72.077698 72.077698v226.5553h59.747665c23.761481 0 43.016871 19.261973 43.016871 43.020162v23.603487c0 10.727063-8.689612 19.419966-19.416675 19.419966h-184.489678c-23.758189 0-43.016871-19.265265-43.01687-43.023453v-269.575462h0.003291z" fill="#826940" /></svg>